<?xml version="1.0" encoding="UTF-8"?><svg id="uuid-65c09ba9-e929-4662-9d69-bc7b6d0b96b4" xmlns="http://www.w3.org/2000/svg" viewBox="0 0 100 100"><path d="m51.65,61.96c-.73,5.09-6.25,21.38-6.25,21.38h25.59s-11.05-5.63-9.02-21.38c.45-3.47-10.32,0-10.32,0Z" style="fill:#b3b3b3;"/><path d="m55.85,65.49c1,9.36-10.47,14.22-17.81,16.36-15.37,4.5-36.3-3.93-26.57-22.59,6.54-11.83,1.82-15.19-10.41-13.71-1.11.18-1.5-1.49-.42-1.81,8.91-3.23,20.38-1.68,18.24,10.56-.56,3.91-2.53,7.2-3.43,10.92-1.91,11.15,13.08,11.48,20.65,9.27,3.27-.86,6.36-2.34,9.04-4.25,3.03-2.38,5-4.28,9.08-5.66.7-.3,1.53.16,1.63.92h0Z" style="fill:#b3b3b3;"/><path d="m56.3,25.58c-7.76,0-14.63,1.1-18.89,5.78,3.61-3.12,9.06-3.89,15.16-3.89,10.87,0,19.68,4.19,19.68,16.32s-8.81,16.32-19.68,16.32-19.17-2.28-19.66-15.15c-.01.41-.02.82-.02,1.24,0,17.57,10.48,20.63,23.41,20.63s23.41-5.29,23.41-20.63-10.48-20.63-23.41-20.63Z" style="fill:#b3b3b3;"/><path d="m60.37,46.31c0,3.99-3.78,8.53-7.55,6-1.58-1.06-2.88-1.96-3.33-1.96s-.68.18-1.47,1.18c-2.19,2.76-6.34,1.96-7.59-4.14-.52-2.51,2.58,3.89,4.59,3.51,2.13-.4,3.09-4.58,4.78-4.38,1.23.14,3,4.78,5.33,4.56,2.21-.21,5.24-6.92,5.24-4.76Z" style="fill:#b3b3b3;"/><path d="m36.6,40.87c4.66-7.88,11.02-2.21,12.59.77,1.57,2.98-3.42-2.11-6.81-2.44s-8.2,5.76-5.78,1.67Z" style="fill:#b3b3b3;"/><path d="m53.83,40.99c5.41-7.63,11.63-1.65,13.06,1.41,1.43,3.06-3.67-1.84-7.17-2.34-3.51-.5-8.69,4.89-5.88.93Z" style="fill:#b3b3b3;"/><path d="m52.58,27.47c.3,0,.59.02.89.02-16.59-26.39-18.96-9.4-18.06,6.15,3.37-5.06,9.79-6.17,17.17-6.17Z" style="fill:#b3b3b3;"/><path d="m58.76,28.01c4.67.87,8.56,2.86,10.94,6.38l6.01,2.48c4.75-18.27-2.19-32.55-16.95-8.86Z" style="fill:#b3b3b3;"/></svg>