<?xml version="1.0" encoding="UTF-8"?><svg id="uuid-c1dca3a6-c92e-4913-9b70-ffa1e05e0735" xmlns="http://www.w3.org/2000/svg" viewBox="0 0 100 100"><path d="m40.95,54.31c-2.38-1.61-5.29-2.42-8.74-2.42-3.07,0-5.83.71-8.28,2.13-2.45,1.42-4.37,3.36-5.75,5.81-1.38,2.46-2.07,5.18-2.07,8.17s.69,5.71,2.07,8.17c1.38,2.46,3.3,4.39,5.75,5.81,2.46,1.42,5.22,2.13,8.28,2.13,3.45,0,6.37-.81,8.74-2.42,2.37-1.61,3.83-3.3,4.37-5.06h16.22c-1.23,7.21-4.55,12.94-9.95,17.2-5.41,4.26-11.98,6.38-19.73,6.38-6.29,0-11.85-1.44-16.68-4.31-4.83-2.88-8.57-6.75-11.21-11.62-2.65-4.87-3.97-10.3-3.97-16.28s1.32-11.41,3.97-16.28c2.64-4.87,6.38-8.74,11.21-11.62s10.39-4.31,16.68-4.31c7.74,0,14.32,2.13,19.73,6.39,5.41,4.26,8.72,9.99,9.95,17.2h-16.11c-.61-1.76-2.11-3.45-4.49-5.06Z" style="fill:#b3b3b3;"/><polygon points="100 75.68 74.71 75.68 74.71 61.22 85.55 61.22 85.55 38.92 60.87 14.25 38.57 14.25 38.57 25.09 24.12 25.09 24.12 -.21 66.86 -.21 100 32.94 100 75.68" style="fill:#b3b3b3;"/></svg>